<svg xmlns="http://www.w3.org/2000/svg" xmlns:xlink="http://www.w3.org/1999/xlink" style="margin:auto;background:#10161f;display:block;z-index:1;position:relative" width="1280" height="882" preserveAspectRatio="xMidYMid" viewBox="0 0 1280 882">
<g transform="translate(640,441) scale(1,1) translate(-640,-441)"><linearGradient id="lg-0.5022012469940341" x1="0" x2="1" y1="0" y2="0">
  <stop stop-color="#004cbf" offset="0"></stop>
  <stop stop-color="#10161f" offset="1"></stop>
</linearGradient><path d="M 1262 441 C 1262 602 916 771 763 821 C 610 871 363 842 268 712 C 173 582 73 228 168 98 C 263 -32 601 40 754 90 C 907 140 1262 280 1262 441" fill="url(#lg-0.5022012469940341)" opacity="0.4">
  <animate attributeName="d" dur="10s" repeatCount="indefinite" keyTimes="0;0.3333333333333333;0.6666666666666666;1" calcmod="spline" keySplines="0.3 0.1 0.7 0.9;0.3 0.1 0.7 0.9;0.3 0.1 0.7 0.9" begin="-4s" values="M 1262 441 C 1262 602 916 771 763 821 C 610 871 363 842 268 712 C 173 582 73 228 168 98 C 263 -32 601 40 754 90 C 907 140 1262 280 1262 441;M 1275 441 C 1275 619 967 873 798 928 C 629 983 331 886 226 742 C 121 598 103 271 208 127 C 313 -17 620 -71 789 -16 C 958 39 1275 263 1275 441;M 1219 441 C 1219 616 937 789 771 843 C 605 897 286 914 183 773 C 80 632 135 290 238 149 C 341 8 621 -65 787 -11 C 953 43 1219 266 1219 441;M 1262 441 C 1262 602 916 771 763 821 C 610 871 363 842 268 712 C 173 582 73 228 168 98 C 263 -32 601 40 754 90 C 907 140 1262 280 1262 441"></animate>
</path><path d="M 1216 441 C 1216 598 924 808 775 856 C 626 904 297 884 205 757 C 113 630 177 298 269 171 C 361 44 612 21 761 69 C 910 117 1216 284 1216 441" fill="url(#lg-0.5022012469940341)" opacity="0.4">
  <animate attributeName="d" dur="10s" repeatCount="indefinite" keyTimes="0;0.3333333333333333;0.6666666666666666;1" calcmod="spline" keySplines="0.3 0.1 0.7 0.9;0.3 0.1 0.7 0.9;0.3 0.1 0.7 0.9" begin="-4s" values="M 1216 441 C 1216 598 924 808 775 856 C 626 904 297 884 205 757 C 113 630 177 298 269 171 C 361 44 612 21 761 69 C 910 117 1216 284 1216 441;M 1207 441 C 1207 611 918 747 757 800 C 596 853 256 930 156 793 C 56 656 33 209 133 72 C 233 -65 608 -9 769 43 C 930 95 1207 271 1207 441;M 1281 441 C 1281 625 973 871 798 928 C 623 985 244 956 136 807 C 28 658 101 277 209 128 C 317 -21 616 -82 791 -25 C 966 32 1281 257 1281 441;M 1216 441 C 1216 598 924 808 775 856 C 626 904 297 884 205 757 C 113 630 177 298 269 171 C 361 44 612 21 761 69 C 910 117 1216 284 1216 441"></animate>
</path><path d="M 1327 441 C 1327 625 967 851 792 908 C 617 965 304 913 196 764 C 88 615 59 246 167 97 C 275 -52 598 -26 773 31 C 948 88 1327 257 1327 441" fill="url(#lg-0.5022012469940341)" opacity="0.4">
  <animate attributeName="d" dur="10s" repeatCount="indefinite" keyTimes="0;0.3333333333333333;0.6666666666666666;1" calcmod="spline" keySplines="0.3 0.1 0.7 0.9;0.3 0.1 0.7 0.9;0.3 0.1 0.7 0.9" begin="-4s" values="M 1327 441 C 1327 625 967 851 792 908 C 617 965 304 913 196 764 C 88 615 59 246 167 97 C 275 -52 598 -26 773 31 C 948 88 1327 257 1327 441;M 1204 441 C 1204 621 940 779 768 835 C 596 891 294 915 188 769 C 82 623 108 278 214 132 C 320 -14 622 -87 794 -31 C 966 25 1204 261 1204 441;M 1148 441 C 1148 600 916 777 765 826 C 614 875 280 899 187 770 C 94 641 83 233 177 104 C 271 -25 615 5 766 54 C 917 103 1148 282 1148 441;M 1327 441 C 1327 625 967 851 792 908 C 617 965 304 913 196 764 C 88 615 59 246 167 97 C 275 -52 598 -26 773 31 C 948 88 1327 257 1327 441"></animate>
</path><path d="M 1208 441 C 1208 596 931 836 784 884 C 637 932 291 886 200 761 C 109 636 171 291 262 166 C 353 41 618 8 765 56 C 912 104 1208 286 1208 441" fill="url(#lg-0.5022012469940341)" opacity="0.4">
  <animate attributeName="d" dur="10s" repeatCount="indefinite" keyTimes="0;0.3333333333333333;0.6666666666666666;1" calcmod="spline" keySplines="0.3 0.1 0.7 0.9;0.3 0.1 0.7 0.9;0.3 0.1 0.7 0.9" begin="-4s" values="M 1208 441 C 1208 596 931 836 784 884 C 637 932 291 886 200 761 C 109 636 171 291 262 166 C 353 41 618 8 765 56 C 912 104 1208 286 1208 441;M 1158 441 C 1158 600 913 767 762 816 C 611 865 329 863 236 735 C 143 607 141 274 234 146 C 327 18 623 -21 774 28 C 925 77 1158 282 1158 441;M 1335 441 C 1335 627 977 877 800 934 C 623 991 208 986 98 835 C -12 684 35 232 145 81 C 255 -70 637 -152 814 -94 C 991 -36 1335 255 1335 441;M 1208 441 C 1208 596 931 836 784 884 C 637 932 291 886 200 761 C 109 636 171 291 262 166 C 353 41 618 8 765 56 C 912 104 1208 286 1208 441"></animate>
</path><path d="M 1379 441 C 1379 627 968 849 791 906 C 614 963 270 940 161 789 C 52 638 32 228 141 78 C 250 -72 624 -112 801 -54 C 978 4 1379 255 1379 441" fill="url(#lg-0.5022012469940341)" opacity="0.4">
  <animate attributeName="d" dur="10s" repeatCount="indefinite" keyTimes="0;0.3333333333333333;0.6666666666666666;1" calcmod="spline" keySplines="0.3 0.1 0.7 0.9;0.3 0.1 0.7 0.9;0.3 0.1 0.7 0.9" begin="-4s" values="M 1379 441 C 1379 627 968 849 791 906 C 614 963 270 940 161 789 C 52 638 32 228 141 78 C 250 -72 624 -112 801 -54 C 978 4 1379 255 1379 441;M 1218 441 C 1218 621 978 901 807 956 C 636 1011 322 894 216 749 C 110 604 113 280 219 135 C 325 -10 612 -55 783 1 C 954 57 1218 261 1218 441;M 1289 441 C 1289 618 952 830 784 885 C 616 940 276 924 172 781 C 68 638 30 216 134 73 C 238 -70 592 17 760 72 C 928 127 1289 264 1289 441;M 1379 441 C 1379 627 968 849 791 906 C 614 963 270 940 161 789 C 52 638 32 228 141 78 C 250 -72 624 -112 801 -54 C 978 4 1379 255 1379 441"></animate>
</path></g>
</svg>